HIERARCHY
ROOT Hips
{
	OFFSET 0.00 0.00 0.00
	CHANNELS 6 Xposition Yposition Zposition Zrotation Xrotation Yrotation
	JOINT Spine
	{
		OFFSET 0 13.7848 0.0644
		CHANNELS 3 Zrotation Xrotation Yrotation
		JOINT Spine1
		{
			OFFSET 0 12.0447 -0
			CHANNELS 3 Zrotation Xrotation Yrotation
			JOINT Spine2
			{
				OFFSET -0 17.8005 -0
				CHANNELS 3 Zrotation Xrotation Yrotation
				JOINT Neck
				{
					OFFSET 0 40.9166 -0
					CHANNELS 3 Zrotation Xrotation Yrotation
					JOINT Head
					{
						OFFSET -0 21.2887 0
						CHANNELS 3 Zrotation Xrotation Yrotation
						JOINT HeadTop_End
						{
							OFFSET 0 17.4474 0
							CHANNELS 3 Zrotation Xrotation Yrotation
						}
					}
				}
				JOINT LeftShoulder
				{
					OFFSET 17.3995 23.8766 -6.0721
					CHANNELS 3 Zrotation Xrotation Yrotation
					JOINT LeftArm
					{
						OFFSET -0 19.9201 -0
						CHANNELS 3 Zrotation Xrotation Yrotation
						JOINT LeftForeArm
						{
							OFFSET -0 49.2901 -0
							CHANNELS 3 Zrotation Xrotation Yrotation
							JOINT LeftHand
							{
								OFFSET 0 31.562 0
								CHANNELS 3 Zrotation Xrotation Yrotation
								JOINT LeftHandThumb1
								{
									OFFSET -7.9466 6.134 2.4863
									CHANNELS 3 Zrotation Xrotation Yrotation
									JOINT LeftHandThumb2
									{
										OFFSET -0.0255 -7.7944 -0.0327
										CHANNELS 3 Zrotation Xrotation Yrotation
										JOINT LeftHandThumb3
										{
											OFFSET -0.0205 -8.3869 0.0307
											CHANNELS 3 Zrotation Xrotation Yrotation
											JOINT LeftHandThumb4
											{
												OFFSET 0.0565 -7.2511 -0.013
												CHANNELS 3 Zrotation Xrotation Yrotation
											}
										}
									}
								}
								JOINT LeftHandPinky1
								{
									OFFSET 10.9531 18.9207 3.2871
									CHANNELS 3 Zrotation Xrotation Yrotation
									JOINT LeftHandPinky2
									{
										OFFSET -0.0034 -4.9187 0.0963
										CHANNELS 3 Zrotation Xrotation Yrotation
										JOINT LeftHandPinky3
										{
											OFFSET 0.0758 -5.2323 0.0358
											CHANNELS 3 Zrotation Xrotation Yrotation
											JOINT LeftHandPinky4
											{
												OFFSET -0.1312 -5.5702 0.001
												CHANNELS 3 Zrotation Xrotation Yrotation
											}
										}
									}
								}
								JOINT LeftHandRing1
								{
									OFFSET 6.2716 22.7261 1.7123
									CHANNELS 3 Zrotation Xrotation Yrotation
									JOINT LeftHandRing2
									{
										OFFSET -0.0452 -6.4083 0.0434
										CHANNELS 3 Zrotation Xrotation Yrotation
										JOINT LeftHandRing3
										{
											OFFSET -0.1152 -6.1487 -0.0756
											CHANNELS 3 Zrotation Xrotation Yrotation
											JOINT LeftHandRing4
											{
												OFFSET -0.2306 -6.141 -0.0323
												CHANNELS 3 Zrotation Xrotation Yrotation
											}
										}
									}
								}
								JOINT LeftHandMiddle1
								{
									OFFSET -0 23.374 -0
									CHANNELS 3 Zrotation Xrotation Yrotation
									JOINT LeftHandMiddle2
									{
										OFFSET -0.1878 -6.9921 -0.168
										CHANNELS 3 Zrotation Xrotation Yrotation
										JOINT LeftHandMiddle3
										{
											OFFSET -0.0477 -7.0158 0.0144
											CHANNELS 3 Zrotation Xrotation Yrotation
											JOINT LeftHandMiddle4
											{
												OFFSET -0.0402 -7.7215 -0.0133
												CHANNELS 3 Zrotation Xrotation Yrotation
											}
										}
									}
								}
								JOINT LeftHandIndex1
								{
									OFFSET -6.1355 21.3106 -1.073
									CHANNELS 3 Zrotation Xrotation Yrotation
									JOINT LeftHandIndex2
									{
										OFFSET 0.0766 -7.536 -0.0238
										CHANNELS 3 Zrotation Xrotation Yrotation
										JOINT LeftHandIndex3
										{
											OFFSET -0.0927 -7.5116 0.0451
											CHANNELS 3 Zrotation Xrotation Yrotation
											JOINT LeftHandIndex4
											{
												OFFSET -0.0002 -10.2123 -0.0339
												CHANNELS 3 Zrotation Xrotation Yrotation
											}
										}
									}
								}
							}
						}
					}
				}
				JOINT RightShoulder
				{
					OFFSET -17.3995 23.8766 -6.0721
					CHANNELS 3 Zrotation Xrotation Yrotation
					JOINT RightArm
					{
						OFFSET 0 19.9201 0
						CHANNELS 3 Zrotation Xrotation Yrotation
						JOINT RightForeArm
						{
							OFFSET 0 49.2901 0
							CHANNELS 3 Zrotation Xrotation Yrotation
							JOINT RightHand
							{
								OFFSET -0 31.562 0
								CHANNELS 3 Zrotation Xrotation Yrotation
								JOINT RightHandThumb1
								{
									OFFSET 7.9466 6.134 2.4863
									CHANNELS 3 Zrotation Xrotation Yrotation
									JOINT RightHandThumb2
									{
										OFFSET 0.0255 -7.7944 -0.0327
										CHANNELS 3 Zrotation Xrotation Yrotation
										JOINT RightHandThumb3
										{
											OFFSET 0.0205 -8.3869 0.0307
											CHANNELS 3 Zrotation Xrotation Yrotation
											JOINT RightHandThumb4
											{
												OFFSET -0.0565 -7.2511 -0.013
												CHANNELS 3 Zrotation Xrotation Yrotation
											}
										}
									}
								}
								JOINT RightHandIndex1
								{
									OFFSET 6.1355 21.3106 -1.073
									CHANNELS 3 Zrotation Xrotation Yrotation
									JOINT RightHandIndex2
									{
										OFFSET -0.0766 -7.536 -0.0238
										CHANNELS 3 Zrotation Xrotation Yrotation
										JOINT RightHandIndex3
										{
											OFFSET 0.0927 -7.5116 0.0451
											CHANNELS 3 Zrotation Xrotation Yrotation
											JOINT RightHandIndex4
											{
												OFFSET 0.0002 -10.2123 -0.0339
												CHANNELS 3 Zrotation Xrotation Yrotation
											}
										}
									}
								}
								JOINT RightHandMiddle1
								{
									OFFSET 0 23.374 -0
									CHANNELS 3 Zrotation Xrotation Yrotation
									JOINT RightHandMiddle2
									{
										OFFSET 0.1878 -6.9921 -0.168
										CHANNELS 3 Zrotation Xrotation Yrotation
										JOINT RightHandMiddle3
										{
											OFFSET 0.0477 -7.0158 0.0144
											CHANNELS 3 Zrotation Xrotation Yrotation
											JOINT RightHandMiddle4
											{
												OFFSET 0.0402 -7.7215 -0.0133
												CHANNELS 3 Zrotation Xrotation Yrotation
											}
										}
									}
								}
								JOINT RightHandRing1
								{
									OFFSET -6.2716 22.7261 1.7123
									CHANNELS 3 Zrotation Xrotation Yrotation
									JOINT RightHandRing2
									{
										OFFSET 0.0452 -6.4083 0.0434
										CHANNELS 3 Zrotation Xrotation Yrotation
										JOINT RightHandRing3
										{
											OFFSET 0.1152 -6.1487 -0.0756
											CHANNELS 3 Zrotation Xrotation Yrotation
											JOINT RightHandRing4
											{
												OFFSET 0.2306 -6.141 -0.0323
												CHANNELS 3 Zrotation Xrotation Yrotation
											}
										}
									}
								}
								JOINT RightHandPinky1
								{
									OFFSET -10.9531 18.9207 3.2871
									CHANNELS 3 Zrotation Xrotation Yrotation
									JOINT RightHandPinky2
									{
										OFFSET 0.0034 -4.9187 0.0963
										CHANNELS 3 Zrotation Xrotation Yrotation
										JOINT RightHandPinky3
										{
											OFFSET -0.0758 -5.2323 0.0358
											CHANNELS 3 Zrotation Xrotation Yrotation
											JOINT RightHandPinky4
											{
												OFFSET 0.1312 -5.5702 0.001
												CHANNELS 3 Zrotation Xrotation Yrotation
											}
										}
									}
								}
							}
						}
					}
				}
			}
		}
	}
	JOINT LeftUpLeg
	{
		OFFSET 19.8991 -7.8851 -3.4295
		CHANNELS 3 Zrotation Xrotation Yrotation
		JOINT LeftLeg
		{
			OFFSET -0 38.4457 -0
			CHANNELS 3 Zrotation Xrotation Yrotation
			JOINT LeftFoot
			{
				OFFSET -0.1321 32.8117 -0.1889
				CHANNELS 3 Zrotation Xrotation Yrotation
				JOINT LeftToeBase
				{
					OFFSET 0 24.02 0
					CHANNELS 3 Zrotation Xrotation Yrotation
					JOINT LeftToe_End
					{
						OFFSET -0 16.6166 -0
						CHANNELS 3 Zrotation Xrotation Yrotation
					}
				}
			}
		}
	}
	JOINT RightUpLeg
	{
		OFFSET -19.8991 -7.8851 -3.4295
		CHANNELS 3 Zrotation Xrotation Yrotation
		JOINT RightLeg
		{
			OFFSET 0 38.4457 -0
			CHANNELS 3 Zrotation Xrotation Yrotation
			JOINT RightFoot
			{
				OFFSET 0.1321 32.8117 -0.1889
				CHANNELS 3 Zrotation Xrotation Yrotation
				JOINT RightToeBase
				{
					OFFSET -0 24.02 0
					CHANNELS 3 Zrotation Xrotation Yrotation
					JOINT RightToe_End
					{
						OFFSET 0 16.6166 -0
						CHANNELS 3 Zrotation Xrotation Yrotation
					}
				}
			}
		}
	}
}
MOTION
Frames: 5
Frame Time: 0.0333333
-0.5045	79.0789	2.3081	0.50954	11.5748	-19.0141	1.68692	4.3009	-0.675001	1.51534	6.865	-1.31946	1.90194	23.0818	-1.31683	-4.47592	24.2577	2.36699	-10.3413	-44.53	5.34241	-0	-55.7115	-0	-85.5806	-1.12909	13.8121	-70.1467	48.3619	53.4261	81.7035	41.3663	-1.73203	6.93328	-15.7827	53.4807	-143.189	-2.67664	-131.279	9.50468	8.25641	-10.0831	53.3276	-2.20911	27.1347	-8.6489	-1.81523	-33.3438	130.409	-19.6198	-175.598	5.20814	36.4242	-10.5947	20.7061	53.4607	-28.9101	-0.569979	-8.19974	-4.84949	153.241	15.3684	-171.237	1.7972	57.8006	0.548923	2.54655	29.2668	-7.21956	-0	-6.0471	-0	-173.031	-3.69285	-177.418	-23.2444	63.542	27.659	-2.5472	15.7685	1.60179	0.291655	-5.22659	-2.24865	-140.819	-12.3851	-173.276	-4.03741	13.5186	6.3811	-26.8665	36.5609	30.4271	-2.39024	-0.645758	5.07582	82.0098	7.88752	-13.9423	77.8843	55.1969	-51.4994	-87.0246	41.9319	4.95236	2.81133	12.7941	-54.7343	118.64	14.8755	146.956	-35.0022	-19.1511	-5.55884	0.754176	14.8307	3.6246	8.6489	-1.81523	33.3438	167.982	7.08234	-167.648	18.5656	31.4831	-21.5507	5.58283	13.6581	-9.07459	2.39024	-0.645758	-5.07582	-177.125	8.5703	178.067	32.1347	68.1114	-36.0482	8.21037	42.0388	-6.41744	-0.291655	-5.22659	2.24865	-168.684	-13.4773	176.211	-3.01238	39.1675	-2.91149	-1.46146	-1.24184	0.546228	-0	-6.0471	-0	-151.948	-45.5735	-177.584	-24.3436	60.8216	35.6017	-11.6988	43.8486	18.1198	0.569979	-8.19974	4.84949	-126.065	44.0977	-50.446	53.0355	-82.0863	44.0461	-54.7456	62.3258	40.524	-2.93033	56.1331	3.58015	-0.214127	1.01299	0.205132	142.632	39.4794	39.626	-34.5031	-80.9066	-25.2988	60.982	66.9025	-48.0586	3.01788	56.1894	-4.1938	0.214127	1.01299	-0.205132
-0.7557	79.6878	2.1821	0.391397	11.8375	-18.5933	1.52473	4.1656	-0.396848	1.40076	6.73596	-1.10271	1.73391	22.9536	-1.11174	-4.13804	24.2616	2.33679	-10.4605	-44.4598	4.73054	-0	-55.7115	-0	-85.2894	-1.07948	13.8292	-70.3082	47.9928	55.3611	80.7169	41.2356	-1.14032	6.62177	-15.2527	53.7276	-143.189	-2.67656	-131.279	9.50468	8.25641	-10.0831	53.3276	-2.20911	27.1347	-8.6489	-1.81523	-33.3438	130.41	-19.6198	-175.598	5.20814	36.4242	-10.5947	20.7061	53.4607	-28.9101	-0.569979	-8.19974	-4.84949	153.241	15.3684	-171.237	1.7972	57.8006	0.548923	2.54655	29.2668	-7.21956	-0	-6.0471	-0	-173.031	-3.69285	-177.418	-23.2443	63.5419	27.6589	-2.5472	15.7685	1.60179	0.291655	-5.22659	-2.24865	-140.819	-12.3851	-173.276	-4.03741	13.5186	6.3811	-26.8665	36.5609	30.4271	-2.39024	-0.645758	5.07582	82.0995	8.00766	-14.0205	79.6273	55.0952	-53.0524	-85.0293	41.7533	3.7358	3.85139	12.5402	-57.392	118.64	14.8755	146.956	-35.0022	-19.1511	-5.55884	0.754076	14.8307	3.6246	8.6489	-1.81523	33.3438	167.985	7.10078	-167.64	18.5569	31.4756	-21.5414	5.58002	13.6534	-9.07173	2.39024	-0.645758	-5.07582	-177.122	8.59029	178.07	32.1127	68.1033	-36.0266	8.20821	42.0332	-6.41553	-0.291655	-5.22659	2.24865	-168.679	-13.4569	176.212	-3.01342	39.1563	-2.91245	-1.46173	-1.24754	0.545229	-0	-6.0471	-0	-151.949	-45.5538	-177.591	-24.3294	60.8131	35.5853	-11.6956	43.8436	18.1156	0.569979	-8.19974	4.84949	-126.021	43.8467	-50.4993	42.0523	-81.4937	33.2503	-52.3795	61.7115	38.9752	-2.93244	56.0977	3.58009	-0.214127	1.01299	0.205132	143.026	38.5301	39.9339	-27.0898	-79.9293	-18.0166	60.056	66.0911	-46.8733	3.16378	56.6023	-5.23756	0.214127	1.01299	-0.205132
-1.0496	80.2413	2.0267	0.408028	12.0388	-18.2434	1.3867	3.9682	0.0332798	1.28267	6.53901	-0.771519	1.52673	22.7567	-0.784904	-4.00251	24.3852	2.16645	-10.3383	-44.2156	4.15052	-0	-55.7115	-0	-84.6779	-1.01203	13.8445	-70.06	48.0727	57.2845	80.3093	41.1792	-0.896311	5.89479	-13.4511	54.9748	-143.189	-2.67664	-131.279	9.50468	8.25641	-10.0831	53.3276	-2.20911	27.1347	-8.6489	-1.81523	-33.3438	130.409	-19.6198	-175.598	5.20812	36.4241	-10.5947	20.7061	53.4607	-28.9101	-0.569979	-8.19974	-4.84949	153.241	15.3684	-171.237	1.7972	57.8006	0.548923	2.54655	29.2668	-7.21956	-0	-6.0471	-0	-173.031	-3.69285	-177.418	-23.2444	63.542	27.659	-2.5472	15.7685	1.60179	0.291655	-5.22659	-2.24865	-140.819	-12.3851	-173.276	-4.03741	13.5186	6.3811	-26.8665	36.5609	30.4271	-2.39024	-0.645758	5.07582	81.7091	8.50535	-14.0838	80.2839	54.9605	-53.3597	-82.0089	41.4102	1.91244	5.14206	12.132	-60.8209	118.64	14.8755	146.956	-35.0022	-19.1511	-5.55884	0.754176	14.8307	3.6246	8.6489	-1.81523	33.3438	167.989	7.11873	-167.631	18.5484	31.4684	-21.5326	5.57739	13.6491	-9.06898	2.39024	-0.645758	-5.07582	-177.118	8.60991	178.074	32.0918	68.0955	-36.0063	8.2063	42.028	-6.41364	-0.291655	-5.22659	2.24865	-168.675	-13.437	176.212	-3.01448	39.145	-2.91353	-1.4619	-1.25294	0.54423	-0	-6.0471	-0	-151.95	-45.5345	-177.598	-24.316	60.805	35.5698	-11.6925	43.8388	18.1117	0.569979	-8.19974	4.84949	-126.096	43.5144	-50.7618	33.2769	-80.6031	24.3251	-50.3648	60.8389	37.9186	-2.92716	56.1881	3.58043	-0.214127	1.01299	0.205132	143.361	37.6987	40.4703	-22.4505	-79.1361	-13.2016	60.2458	65.7892	-47.3957	3.12789	56.4548	-5.00683	0.214127	1.01299	-0.205132
-1.4708	80.7988	1.7566	0.504884	11.9784	-18.1369	1.38018	3.6987	0.603257	1.19512	6.27428	-0.349695	1.31898	22.4895	-0.357054	-4.56186	24.6532	1.85493	-9.64458	-43.6008	4.22408	-0	-55.7115	-0	-84.2475	-1.0014	13.8537	-68.6126	48.3458	58.6591	80.8887	41.2589	-1.24316	3.81252	-11.2474	56.4024	-143.189	-2.67656	-131.279	9.50466	8.25631	-10.0831	53.3277	-2.2092	27.1347	-8.6489	-1.81523	-33.3438	130.41	-19.6198	-175.598	5.20812	36.4241	-10.5947	20.7061	53.4607	-28.9101	-0.569979	-8.19974	-4.84949	153.241	15.3684	-171.237	1.7972	57.8006	0.548923	2.54655	29.2668	-7.21956	-0	-6.0471	-0	-173.031	-3.69285	-177.418	-23.2444	63.542	27.659	-2.5472	15.7685	1.60179	0.291655	-5.22659	-2.24865	-140.819	-12.3851	-173.276	-4.03741	13.5186	6.3811	-26.8664	36.5609	30.4271	-2.39024	-0.645758	5.07582	80.5834	9.77199	-14.1064	79.5925	55.8646	-51.9648	-75.3175	40.3585	-2.04977	6.65582	11.7269	-65.0628	118.64	14.8755	146.956	-35.0022	-19.1511	-5.55884	0.754176	14.8307	3.6246	8.6489	-1.81523	33.3438	167.968	7.00106	-167.687	18.6041	31.5156	-21.5906	5.59493	13.6782	-9.0869	2.39024	-0.645758	-5.07582	-177.142	8.48176	178.05	32.2298	68.1468	-36.141	8.21943	42.0629	-6.42584	-0.291655	-5.22659	2.24865	-168.703	-13.5672	176.207	-3.00753	39.2161	-2.90744	-1.4606	-1.21704	0.550724	-0	-6.0471	-0	-151.943	-45.6606	-177.551	-24.4048	60.8584	35.672	-11.7128	43.8701	18.1376	0.569979	-8.19974	4.84949	-126.461	42.7837	-50.6486	25.0919	-79.4657	15.9997	-48.3107	59.966	36.6516	-2.91997	56.3093	3.58079	-0.214127	1.01299	0.205132	143.709	36.9967	40.6725	-18.6765	-78.4332	-9.52434	60.4331	65.6503	-47.8782	3.09283	56.2791	-4.73419	0.214127	1.01299	-0.205132
-2.0184	81.2807	1.4397	0.705578	11.3763	-18.638	1.66726	3.25902	0.983891	1.27925	5.89179	-0.0862556	1.3349	22.1085	-0.108152	-6.22331	25.1294	1.48586	-8.32505	-42.2978	5.45153	-0	-55.7115	-0	-84.5404	-1.11188	13.8571	-65.3543	48.33	59.2495	82.1191	41.4188	-1.98179	1.14165	-10.2454	56.8818	-143.189	-2.67656	-131.279	9.50468	8.25641	-10.0831	53.3276	-2.20911	27.1347	-8.6489	-1.81523	-33.3438	130.41	-19.6198	-175.598	5.20814	36.4242	-10.5947	20.7061	53.4607	-28.9101	-0.569979	-8.19974	-4.84949	153.241	15.3684	-171.237	1.7972	57.8006	0.548923	2.54655	29.2668	-7.21956	-0	-6.0471	-0	-173.031	-3.69285	-177.418	-23.2444	63.542	27.659	-2.5472	15.7685	1.60179	0.291655	-5.22659	-2.24865	-140.819	-12.3851	-173.276	-4.03741	13.5186	6.3811	-26.8665	36.5609	30.4271	-2.39024	-0.645758	5.07582	78.7756	11.7024	-14.0181	77.6527	58.5778	-49.2309	-63.3259	37.5024	-8.82766	8.3767	11.4037	-69.9324	118.64	14.8755	146.956	-35.0022	-19.1511	-5.55884	0.754176	14.8307	3.6246	8.6489	-1.81523	33.3438	167.911	6.67434	-167.844	18.7576	31.6449	-21.7501	5.64324	13.7582	-9.13618	2.39024	-0.645758	-5.07582	-177.208	8.12613	177.983	32.6115	68.2871	-36.5132	8.25559	42.1589	-6.45956	-0.291655	-5.22659	2.24865	-168.782	-13.9287	176.194	-2.98824	39.4143	-2.89031	-1.457	-1.11865	0.568308	-0	-6.0471	-0	-151.925	-46.0105	-177.419	-24.65	61.0043	35.9539	-11.7686	43.9558	18.2091	0.569979	-8.19974	4.84949	-127.332	41.2149	-49.7339	18.2389	-78.2896	9.13868	-46.9126	59.3624	35.3969	-2.91233	56.4381	3.58115	-0.214127	1.01299	0.205132	144.003	36.3354	40.5763	-16.0481	-78.0563	-7.45961	60.7585	65.9012	-48.7784	3.03556	56.0204	-4.27202	0.214127	1.01299	-0.205132
